<?xml version="1.0" encoding="UTF-8" standalone="no"?>
<svg
   xmlns:dc="http://purl.org/dc/elements/1.1/"
   xmlns:cc="http://creativecommons.org/ns#"
   xmlns:rdf="http://www.w3.org/1999/02/22-rdf-syntax-ns#"
   xmlns:svg="http://www.w3.org/2000/svg"
   xmlns="http://www.w3.org/2000/svg"
   xmlns:xlink="http://www.w3.org/1999/xlink"
   width="100"
   height="100"
   viewBox="0 0 26.458332 26.458334"
   version="1.1"
   id="svg8">
  <defs
     id="defs2">
    <style
       id="style2">.cls-1{fill:none;}.cls-2{fill:#333;fill-rule:evenodd;}</style>
    <linearGradient
       id="linearGradient28799-4">
      <stop
         style="stop-color:#fefefc;stop-opacity:1;"
         offset="0"
         id="stop28801-13" />
      <stop
         id="stop28807-8"
         offset="0.75733864"
         style="stop-color:#fefefc;stop-opacity:1" />
      <stop
         style="stop-color:#d4d4d4;stop-opacity:1"
         offset="1"
         id="stop28803-8" />
    </linearGradient>
    <radialGradient
       xlink:href="#linearGradient28799-4"
       id="radialGradient29032"
       gradientUnits="userSpaceOnUse"
       gradientTransform="matrix(1.0857794,-0.03431182,0.03943781,1.2479887,-154.54194,-26.542647)"
       cx="223.19559"
       cy="137.66095"
       fx="223.19559"
       fy="137.66095"
       r="14.572236" />
    <radialGradient
       xlink:href="#linearGradient28799-4"
       id="radialGradient29648"
       gradientUnits="userSpaceOnUse"
       gradientTransform="matrix(0.81524244,-0.03431182,0.02961133,1.2479887,-129.43743,-26.542647)"
       cx="223.19559"
       cy="137.66095"
       fx="223.19559"
       fy="137.66095"
       r="14.572236" />
    <linearGradient
       id="linearGradient14392-7">
      <stop
         id="stop14394-8"
         offset="0"
         style="stop-color:#3e2a06;stop-opacity:1" />
      <stop
         id="stop14396-6"
         offset="1"
         style="stop-color:#ad780a;stop-opacity:1" />
    </linearGradient>
    <linearGradient
       y2="293.58548"
       x2="490.12241"
       y1="371.54401"
       x1="442.03912"
       gradientTransform="matrix(0.87491199,0,0,0.81148755,60.367186,62.586953)"
       gradientUnits="userSpaceOnUse"
       id="linearGradient14477"
       xlink:href="#linearGradient14392-7" />
    <linearGradient
       y2="293.58548"
       x2="490.12241"
       y1="371.54401"
       x1="442.03912"
       gradientTransform="translate(4e-6,9.6185359e-6)"
       gradientUnits="userSpaceOnUse"
       id="linearGradient14485"
       xlink:href="#linearGradient14392-7" />
    <clipPath
       id="clipPath14186-9"
       clipPathUnits="userSpaceOnUse">
      <path
         style="fill:#402c07;fill-opacity:1;stroke:none"
         d="m 137.57703,281.0191 c 1.59929,-0.66295 3.3982,-0.78361 5.10074,-0.46963 1.70253,0.31398 3.31141,1.04948 4.74342,2.02239 2.86402,1.94583 4.98821,4.77774 7.02263,7.57952 4.67189,6.43406 9.16868,13.00227 13.24488,19.8293 3.30635,5.53766 6.34352,11.25685 10.16415,16.45304 2.49398,3.3919 5.3066,6.53947 7.813,9.92221 2.50639,3.38273 4.72794,7.05586 5.83931,11.11662 1.44411,5.27653 0.88463,11.09291 -1.62666,15.95302 -1.76663,3.41896 -4.47646,6.35228 -7.77242,8.33898 -3.29595,1.9867 -7.17064,3.01444 -11.01635,2.87021 -6.11413,-0.2293 -11.69944,-3.28515 -17.38362,-5.54906 -11.58097,-4.6125 -24.15978,-6.0594 -36.09666,-9.65174 -3.66859,-1.10404 -7.27582,-2.4107 -10.96988,-3.42629 -1.64125,-0.45122 -3.30866,-0.8482 -4.85875,-1.55144 -1.55008,-0.70325 -2.999548,-1.7491 -3.86171,-3.21675 -0.666391,-1.13439 -0.948386,-2.47002 -0.930187,-3.78554 0.0182,-1.31552 0.325889,-2.61453 0.773815,-3.85158 0.895851,-2.47409 2.343262,-4.71374 3.320162,-7.15696 1.59511,-3.98935 1.88169,-8.38839 1.66657,-12.67942 -0.21511,-4.29103 -0.91078,-8.54478 -1.20454,-12.83115 -0.13118,-1.91406 -0.18066,-3.85256 0.18479,-5.73598 0.36545,-1.88343 1.17577,-3.72459 2.55771,-5.05541 1.27406,-1.22693 2.96492,-1.95531 4.69643,-2.31651 1.73151,-0.3612 3.51533,-0.37747 5.28367,-0.33762 1.76833,0.0399 3.54067,0.13425 5.30351,-0.0106 1.76284,-0.14488 3.53347,-0.54055 5.06911,-1.41828 1.45996,-0.83447 2.65433,-2.0745 3.64374,-3.43424 0.9894,-1.35974 1.78909,-2.84573 2.60891,-4.31396 0.81983,-1.46823 1.66834,-2.93151 2.74157,-4.22611 1.07324,-1.2946 2.38923,-2.42304 3.94266,-3.06698"
         id="path14188-1" />
    </clipPath>
    <linearGradient
       id="linearGradient14132-6">
      <stop
         id="stop14134-2"
         offset="0"
         style="stop-color:#b98309;stop-opacity:1" />
      <stop
         id="stop14136-2"
         offset="1"
         style="stop-color:#382605;stop-opacity:1" />
    </linearGradient>
    <filter
       style="color-interpolation-filters:sRGB"
       height="1.2169911"
       y="-0.10849553"
       width="1.215018"
       x="-0.10750898"
       id="filter14148-8">
      <feGaussianBlur
         id="feGaussianBlur14150-8"
         stdDeviation="3.9237191" />
    </filter>
    <filter
       style="color-interpolation-filters:sRGB"
       id="filter14140-3">
      <feGaussianBlur
         id="feGaussianBlur14142-5"
         stdDeviation="2.4365744" />
    </filter>
    <linearGradient
       id="linearGradient14168-5">
      <stop
         id="stop14170-8"
         offset="0"
         style="stop-color:#ebc40c;stop-opacity:1;" />
      <stop
         id="stop14172-0"
         offset="1"
         style="stop-color:#ebc40c;stop-opacity:0;" />
    </linearGradient>
    <filter
       style="color-interpolation-filters:sRGB"
       id="filter14176-5">
      <feGaussianBlur
         id="feGaussianBlur14178-0"
         stdDeviation="0.3702557" />
    </filter>
    <clipPath
       id="clipPath15031-3"
       clipPathUnits="userSpaceOnUse">
      <path
         id="path15033-2"
         d="m 248.06066,184.61218 c 0,0 -5.10626,6.34527 -7.89695,10.24696 -2.7907,3.9017 -5.73652,6.64881 -8.58729,10.75139 -2.85076,4.10259 -7.36482,9.43164 -9.44912,13.93045 -2.08429,4.49881 -2.32047,9.0356 -4.26498,13.84932 -1.94451,4.81371 -3.70129,10.64183 -5.97071,15.33612 -2.26943,4.69429 -5.37093,9.68473 -6.93891,13.53553 -1.56799,3.8508 -3.81119,5.72384 -4.10782,10.22071 -0.29663,4.49686 -0.57747,8.31749 3.77151,16.77227 4.34898,8.45478 17.23626,22.00721 24.24176,27.92472 7.00549,5.9175 9.39133,7.22492 14.60245,8.52595 5.21112,1.30104 13.85627,2.9981 16.72874,-1.2702 2.87246,-4.26829 2.27191,-5.96483 -0.74863,-10.66616 -3.02055,-4.70132 -4.82469,-5.30209 -9.79642,-9.57343 -4.97172,-4.27133 -18.63696,-14.87266 -22.68212,-19.23996 -4.04516,-4.36729 -7.10731,-3.41164 -5.53019,-6.28412 1.57712,-2.87249 -2.20738,-4.00856 -2.65783,-7.69253 -0.76361,-6.24511 0.9436,-18.71046 1.45958,-22.13343 0.51598,-3.42296 1.22371,-2.92446 3.51815,-8.03965 2.29444,-5.11519 4.12424,-8.62435 7.04933,-13.46723 2.92509,-4.84289 8.62493,-10.12787 11.15147,-15.27803 2.52654,-5.15017 3.50393,-10.72068 4.36185,-15.31831 0.85792,-4.59763 1.74613,-12.13037 1.74613,-12.13037 z"
         style="fill:none;stroke:#729fcf;stroke-width:0.125;stroke-linecap:butt;stroke-linejoin:miter;stroke-miterlimit:4;stroke-dasharray:none;stroke-opacity:1" />
    </clipPath>
    <filter
       style="color-interpolation-filters:sRGB"
       height="1.0853395"
       y="-0.042669769"
       width="1.2020705"
       x="-0.10103524"
       id="filter15053-7">
      <feGaussianBlur
         id="feGaussianBlur15055-3"
         stdDeviation="1.1322032" />
    </filter>
    <linearGradient
       id="linearGradient14830-4">
      <stop
         style="stop-color:#7c7c7c;stop-opacity:1;"
         offset="0"
         id="stop14832-6" />
      <stop
         style="stop-color:#7c7c7c;stop-opacity:0.32941177"
         offset="1"
         id="stop14834-5" />
    </linearGradient>
    <clipPath
       id="clipPath14822-9"
       clipPathUnits="userSpaceOnUse">
      <path
         style="fill:none;stroke:#ce5c00;stroke-width:1px;stroke-linecap:butt;stroke-linejoin:miter;stroke-opacity:1"
         id="path14824-1"
         d="m 386.1875,285.32775 c -0.40516,-1.10369 -1.11845,-2.08156 -1.9907,-2.86987 -0.87226,-0.78832 -1.90049,-1.39229 -2.98278,-1.85155 -2.16459,-0.91852 -4.52053,-1.26149 -6.83152,-1.69556 -2.17919,-0.40931 -4.34179,-0.90631 -6.52782,-1.27734 -2.27136,-0.38551 -4.6179,-0.63213 -6.8653,-0.1253 -1.96583,0.44333 -3.7845,1.45879 -5.27172,2.81864 -1.48723,1.35984 -2.64911,3.0564 -3.48499,4.89007 -1.47218,3.22952 -1.93451,6.86503 -1.65394,10.40316 0.20882,2.63325 0.87532,5.34594 2.60877,7.33912 1.40065,1.61052 3.38733,2.61526 5.43398,3.22092 3.52502,1.04316 7.36663,0.98822 10.86038,-0.1553 5.76689,-1.93113 10.87568,-5.77387 14.33034,-10.77903 1.13861,-1.64963 2.11217,-3.44809 2.5532,-5.4034 0.33597,-1.48955 0.34831,-3.08112 -0.1779,-4.51456" />
    </clipPath>
    <filter
       style="color-interpolation-filters:sRGB"
       height="1.3012044"
       y="-0.15060219"
       width="1.1409113"
       x="-0.070455663"
       id="filter14812-5">
      <feGaussianBlur
         id="feGaussianBlur14814-2"
         stdDeviation="1.0252435" />
    </filter>
    <clipPath
       id="clipPath14822-2-4"
       clipPathUnits="userSpaceOnUse">
      <path
         style="fill:none;stroke:#ce5c00;stroke-width:1px;stroke-linecap:butt;stroke-linejoin:miter;stroke-opacity:1"
         id="path14824-6-5"
         d="m 386.1875,285.32775 c -0.40516,-1.10369 -1.11845,-2.08156 -1.9907,-2.86987 -0.87226,-0.78832 -1.90049,-1.39229 -2.98278,-1.85155 -2.16459,-0.91852 -4.52053,-1.26149 -6.83152,-1.69556 -2.17919,-0.40931 -4.34179,-0.90631 -6.52782,-1.27734 -2.27136,-0.38551 -4.6179,-0.63213 -6.8653,-0.1253 -1.96583,0.44333 -3.7845,1.45879 -5.27172,2.81864 -1.48723,1.35984 -2.64911,3.0564 -3.48499,4.89007 -1.47218,3.22952 -1.93451,6.86503 -1.65394,10.40316 0.20882,2.63325 0.87532,5.34594 2.60877,7.33912 1.40065,1.61052 3.38733,2.61526 5.43398,3.22092 3.52502,1.04316 7.36663,0.98822 10.86038,-0.1553 5.76689,-1.93113 10.87568,-5.77387 14.33034,-10.77903 1.13861,-1.64963 2.11217,-3.44809 2.5532,-5.4034 0.33597,-1.48955 0.34831,-3.08112 -0.1779,-4.51456" />
    </clipPath>
    <filter
       style="color-interpolation-filters:sRGB"
       height="1.3012044"
       y="-0.15060219"
       width="1.1409113"
       x="-0.070455663"
       id="filter14812-0-9">
      <feGaussianBlur
         id="feGaussianBlur14814-6-7"
         stdDeviation="1.0252435" />
    </filter>
    <linearGradient
       id="linearGradient14518-6">
      <stop
         style="stop-color:#110800;stop-opacity:1;"
         offset="0"
         id="stop14540-0" />
      <stop
         id="stop14542-5"
         offset="0.59066743"
         style="stop-color:#a65a00;stop-opacity:0.80000001;" />
      <stop
         id="stop14522-4"
         offset="1"
         style="stop-color:#ff921e;stop-opacity:0;" />
    </linearGradient>
    <filter
       style="color-interpolation-filters:sRGB"
       height="1.4681805"
       y="-0.23409025"
       width="1.4010103"
       x="-0.20050517"
       id="filter14897-2">
      <feGaussianBlur
         id="feGaussianBlur14899-5"
         stdDeviation="2.8444356" />
    </filter>
    <filter
       style="color-interpolation-filters:sRGB"
       height="1.2134444"
       y="-0.10672215"
       width="1.1828213"
       x="-0.091410659"
       id="filter14951-8">
      <feGaussianBlur
         id="feGaussianBlur14953-7"
         stdDeviation="1.2967831" />
    </filter>
    <filter
       style="color-interpolation-filters:sRGB"
       height="1.5474488"
       y="-0.27372435"
       width="1.9386586"
       x="-0.46932927"
       id="filter15211-9">
      <feGaussianBlur
         id="feGaussianBlur15213-7"
         stdDeviation="0.85991809" />
    </filter>
    <filter
       style="color-interpolation-filters:sRGB"
       height="1.9645272"
       y="-0.48226368"
       width="2.2077935"
       x="-0.60389674"
       id="filter14706-3">
      <feGaussianBlur
         id="feGaussianBlur14708-8"
         stdDeviation="2.6400036" />
    </filter>
    <linearGradient
       id="linearGradient15103-0">
      <stop
         id="stop15105-1"
         offset="0"
         style="stop-color:#000000;stop-opacity:1;" />
      <stop
         id="stop15107-6"
         offset="1"
         style="stop-color:#000000;stop-opacity:0;" />
    </linearGradient>
    <filter
       style="color-interpolation-filters:sRGB"
       id="filter15115-3">
      <feGaussianBlur
         id="feGaussianBlur15117-8"
         stdDeviation="2.2091576" />
    </filter>
    <clipPath
       id="clipPath14489-3"
       clipPathUnits="userSpaceOnUse">
      <path
         id="path14491-6"
         d="m 516.00562,331.8756 c 0.90859,1.59687 -1.57016,3.38773 -2.81579,4.73826 -2.74207,2.97299 -6.45099,4.90178 -9.89648,7.01985 -5.91373,3.63539 -12.61918,5.90302 -18.41964,9.71654 -3.88318,2.553 -7.32809,5.72221 -10.86016,8.74238 -3.0221,2.58411 -5.48201,5.87643 -8.83247,8.01771 -3.3519,2.1422 -7.0437,4.15414 -10.99061,4.6502 -4.78298,0.60114 -9.87221,-0.25577 -14.29898,-2.16416 -3.0947,-1.33413 -6.16113,-3.38144 -7.96301,-6.22931 -1.81288,-2.86525 -2.06093,-6.5375 -2.23266,-9.92375 -0.30734,-6.06031 1.36252,-12.0605 2.17848,-18.07349 0.67882,-5.00236 1.85312,-9.94325 2.26013,-14.97502 0.73946,-9.14185 -0.7797,-18.40771 0.3199,-27.51327 0.35468,-2.93704 -0.181,-6.65876 2.01238,-8.64398 2.0384,-1.84494 5.43058,-1.1212 8.17929,-1.06253 3.34492,0.0714 6.63224,0.95108 9.88917,1.71656 2.05612,0.48325 3.99816,1.41138 6.0722,1.81081 3.44031,0.66255 6.96573,1.06623 10.46739,0.95192 3.78516,-0.12356 7.43659,-1.79636 11.22363,-1.76474 1.55185,0.013 3.12359,0.28186 4.58649,0.79985 1.48266,0.52499 2.98786,1.20618 4.12281,2.29512 0.86547,0.83038 1.42933,1.95676 1.87872,3.06879 0.67163,1.66196 0.8942,3.4778 1.16703,5.24945 0.24238,1.57389 -0.1531,3.27141 0.41433,4.75933 1.83023,4.79924 5.57666,8.72712 9.22489,12.34277 1.74278,1.93455 4.03041,3.53404 6.16708,4.82839 2.26886,1.37444 4.3675,2.44991 5.46279,4.81597 0.65901,1.48517 -0.54371,3.76097 0.68307,4.82635 z"
         style="fill:url(#linearGradient14485);fill-opacity:1;stroke:none" />
    </clipPath>
    <clipPath
       id="clipPath14481-1"
       clipPathUnits="userSpaceOnUse">
      <path
         id="path14483-3"
         d="m 516.00562,331.8756 c 0.90859,1.59687 -1.57016,3.38773 -2.81579,4.73826 -2.74207,2.97299 -6.45099,4.90178 -9.89648,7.01985 -5.91373,3.63539 -12.61918,5.90302 -18.41964,9.71654 -3.88318,2.553 -7.32809,5.72221 -10.86016,8.74238 -3.0221,2.58411 -5.48201,5.87643 -8.83247,8.01771 -3.3519,2.1422 -7.0437,4.15414 -10.99061,4.6502 -4.78298,0.60114 -9.87221,-0.25577 -14.29898,-2.16416 -3.0947,-1.33413 -6.16113,-3.38144 -7.96301,-6.22931 -1.81288,-2.86525 -2.06093,-6.5375 -2.23266,-9.92375 -0.30734,-6.06031 1.36252,-12.0605 2.17848,-18.07349 0.67882,-5.00236 1.85312,-9.94325 2.26013,-14.97502 0.73946,-9.14185 -0.7797,-18.40771 0.3199,-27.51327 0.35468,-2.93704 -0.181,-6.65876 2.01238,-8.64398 2.0384,-1.84494 5.43058,-1.1212 8.17929,-1.06253 3.34492,0.0714 6.63224,0.95108 9.88917,1.71656 2.05612,0.48325 3.99816,1.41138 6.0722,1.81081 3.44031,0.66255 6.96573,1.06623 10.46739,0.95192 3.78516,-0.12356 7.43659,-1.79636 11.22363,-1.76474 1.55185,0.013 3.12359,0.28186 4.58649,0.79985 1.48266,0.52499 2.98786,1.20618 4.12281,2.29512 0.86547,0.83038 1.42933,1.95676 1.87872,3.06879 0.67163,1.66196 0.8942,3.4778 1.16703,5.24945 0.24238,1.57389 -0.1531,3.27141 0.41433,4.75933 1.83023,4.79924 5.57666,8.72712 9.22489,12.34277 1.74278,1.93455 4.03041,3.53404 6.16708,4.82839 2.26886,1.37444 4.3675,2.44991 5.46279,4.81597 0.65901,1.48517 -0.54371,3.76097 0.68307,4.82635 z"
         style="fill:url(#linearGradient14485);fill-opacity:1;stroke:none" />
    </clipPath>
    <filter
       style="color-interpolation-filters:sRGB"
       height="1.2859976"
       y="-0.14299878"
       width="1.2900307"
       x="-0.14501533"
       id="filter14416-8">
      <feGaussianBlur
         id="feGaussianBlur14418-5"
         stdDeviation="4.7787162" />
    </filter>
    <clipPath
       id="clipPath14473-5"
       clipPathUnits="userSpaceOnUse">
      <path
         id="path14475-9"
         d="m 511.82669,331.89986 c 0.79493,1.29584 -1.37375,2.7491 -2.46357,3.84504 -2.39907,2.41255 -5.64405,3.97773 -8.65855,5.69652 -5.17399,2.95008 -11.04067,4.79023 -16.11556,7.88485 -3.39744,2.07173 -6.41144,4.64351 -9.50169,7.09434 -2.64407,2.09697 -4.79627,4.76865 -7.72763,6.50627 -2.93262,1.73837 -6.16262,3.37103 -9.61582,3.77358 -4.18468,0.48781 -8.63731,-0.20756 -12.51035,-1.75619 -2.70759,-1.08263 -5.39044,-2.744 -6.96693,-5.05501 -1.58611,-2.32511 -1.80313,-5.3051 -1.95338,-8.053 -0.2689,-4.91787 1.19208,-9.78694 1.90598,-14.66641 0.59391,-4.05935 1.62131,-8.06882 1.97741,-12.15204 0.64696,-7.4185 -0.68217,-14.93763 0.27989,-22.32668 0.31031,-2.38337 -0.15836,-5.4035 1.76065,-7.01448 1.78342,-1.49715 4.75128,-0.90984 7.15616,-0.86223 2.92651,0.0579 5.80263,0.77179 8.65215,1.39297 1.79893,0.39215 3.49804,1.14531 5.31265,1.46945 3.00996,0.53765 6.0944,0.86523 9.15804,0.77247 3.31168,-0.10027 6.50636,-1.45773 9.81969,-1.43207 1.35773,0.0105 2.73287,0.22873 4.01277,0.64907 1.2972,0.42602 2.61412,0.9788 3.6071,1.86246 0.75721,0.67384 1.25054,1.58789 1.64371,2.49029 0.58762,1.34866 0.78235,2.82219 1.02105,4.25986 0.21206,1.27719 -0.13395,2.65471 0.36251,3.86214 1.60129,3.89452 4.87908,7.08195 8.07096,10.016 1.52478,1.56986 3.52626,2.86783 5.39565,3.91818 1.98506,1.11534 3.82118,1.98807 4.77946,3.9081 0.57658,1.2052 -0.47569,3.05198 0.59763,3.91652 z"
         style="fill:url(#linearGradient14477);fill-opacity:1;stroke:none" />
    </clipPath>
    <filter
       style="color-interpolation-filters:sRGB"
       height="1.2498901"
       y="-0.12494507"
       width="1.2305853"
       x="-0.11529266"
       id="filter14432-2">
      <feGaussianBlur
         id="feGaussianBlur14434-2"
         stdDeviation="3.1725155" />
    </filter>
    <linearGradient
       id="linearGradient17009">
      <stop
         id="stop17011"
         offset="0"
         style="stop-color:#f3cd0c;stop-opacity:1;" />
      <stop
         id="stop17013"
         offset="1"
         style="stop-color:#f3cd0c;stop-opacity:0;" />
    </linearGradient>
    <filter
       style="color-interpolation-filters:sRGB"
       height="1.2585374"
       y="-0.12926871"
       width="1.0418237"
       x="-0.020911871"
       id="filter17044">
      <feGaussianBlur
         id="feGaussianBlur17046"
         stdDeviation="0.47946431" />
    </filter>
    <filter
       style="color-interpolation-filters:sRGB"
       height="1.3188565"
       y="-0.15942827"
       width="1.3550917"
       x="-0.17754583"
       id="filter15185-2">
      <feGaussianBlur
         id="feGaussianBlur15187-7"
         stdDeviation="0.90083196" />
    </filter>
    <filter
       style="color-interpolation-filters:sRGB"
       id="filter4592-2"
       x="-0.81659585"
       width="2.6331918"
       y="-0.057823781"
       height="1.1156476">
      <feGaussianBlur
         stdDeviation="1.4463082"
         id="feGaussianBlur4594-6" />
    </filter>
    <linearGradient
       id="linearGradient4417-8-5">
      <stop
         style="stop-color:#000000;stop-opacity:1;"
         offset="0"
         id="stop4419-4-4" />
      <stop
         style="stop-color:#000000;stop-opacity:0.24886878"
         offset="1"
         id="stop4421-2-0" />
    </linearGradient>
    <filter
       style="color-interpolation-filters:sRGB"
       id="filter4538-7">
      <feGaussianBlur
         stdDeviation="0.7854602"
         id="feGaussianBlur4540-9" />
    </filter>
    <filter
       style="color-interpolation-filters:sRGB"
       id="filter4427-5-7">
      <feGaussianBlur
         stdDeviation="1.1383167"
         id="feGaussianBlur4429-4-8" />
    </filter>
    <filter
       style="color-interpolation-filters:sRGB"
       id="filter4487-6">
      <feGaussianBlur
         stdDeviation="0.6434074"
         id="feGaussianBlur4489-4" />
    </filter>
    <clipPath
       id="clipPath14656-7"
       clipPathUnits="userSpaceOnUse">
      <path
         style="fill:none;stroke:#c17d11;stroke-width:1px;stroke-linecap:butt;stroke-linejoin:miter;stroke-opacity:1"
         id="path14658-9"
         d="m 304.84727,225.44951 c 6.01627,4.92338 9.77707,12.317 10.94319,20.00305 1.8254,12.03148 -2.34636,24.07488 -6.44591,35.53273 -0.81749,2.28481 -1.63978,4.59033 -1.96473,6.99513 -0.32495,2.4048 -0.11897,4.94825 1.02948,7.08594 1.30279,2.42497 3.73227,4.12469 6.36677,4.92292 2.58877,0.78438 5.39365,0.76103 8.01466,0.0922 2.62101,-0.66882 5.06097,-1.96774 7.18716,-3.63996 5.48002,-4.30997 8.75799,-10.98552 10.01043,-17.84394 1.25243,-6.85841 0.63908,-13.92879 -0.551,-20.7983 -1.62313,-9.36916 -4.30898,-18.53961 -7.74003,-27.40773 -2.51766,-6.50732 -5.46794,-12.91081 -9.61753,-18.52016 -4.04611,-5.46946 -9.16208,-10.08954 -13.10336,-15.63502 -2.73209,-3.84412 -4.89983,-8.13097 -8.1917,-11.50812 -1.64594,-1.68858 -3.57654,-3.13527 -5.76975,-4.00143 -2.19321,-0.86616 -4.66356,-1.12446 -6.93254,-0.48249 -1.50468,0.42573 -2.89193,1.23739 -4.03791,2.30136 -1.14598,1.06397 -2.05268,2.37637 -2.69275,3.80312 -1.28015,2.85349 -1.47719,6.11241 -0.96512,9.1977 0.66114,3.98343 2.44407,7.69333 4.46569,11.18873 2.27396,3.93169 4.918,7.71926 8.38442,10.65407 3.5985,3.04664 7.96161,5.07413 11.61053,8.0602" />
    </clipPath>
    <filter
       style="color-interpolation-filters:sRGB"
       height="1.0800927"
       y="-0.040046327"
       width="1.2350631"
       x="-0.11753157"
       id="filter14666-9">
      <feGaussianBlur
         id="feGaussianBlur14668-7"
         stdDeviation="1.352085" />
    </filter>
    <linearGradient
       id="linearGradient29652-2">
      <stop
         id="stop29654-6"
         offset="0"
         style="stop-color:#c8c8c8;stop-opacity:1;" />
      <stop
         id="stop29656-1"
         offset="1"
         style="stop-color:#797978;stop-opacity:1" />
    </linearGradient>
    <clipPath
       clipPathUnits="userSpaceOnUse"
       id="clipPath29644-8">
      <path
         style="fill:url(#radialGradient29648);fill-opacity:1;stroke:none"
         d="m 54.232441,122.36218 c -3.79199,4.78949 -8.5176,11.69104 -8.19273,17.25 0.32487,5.55896 3.86025,13.93486 8.37542,16 4.51517,2.06514 5.75436,0.0125 8.32902,-2.5 2.57466,-2.51247 3.85871,-7.34762 4.00585,-12.25 0.14713,-4.90238 -3.03534,-11.91949 -5.43855,-15.25 -2.40321,-3.33051 -3.28702,-8.03949 -7.07901,-3.25 z"
         id="path29646-8" />
    </clipPath>
    <linearGradient
       id="linearGradient28469-0">
      <stop
         id="stop28479-4"
         offset="0"
         style="stop-color:#d2940a;stop-opacity:1" />
      <stop
         id="stop28477-2"
         offset="0.75143719"
         style="stop-color:#d89c08;stop-opacity:1" />
      <stop
         style="stop-color:#b67e07;stop-opacity:1;"
         offset="0.86579126"
         id="stop28485-7" />
      <stop
         style="stop-color:#946106;stop-opacity:1"
         offset="1"
         id="stop28473-1" />
    </linearGradient>
    <filter
       style="color-interpolation-filters:sRGB"
       id="filter28502-8"
       x="-0.1548306"
       width="1.3096611"
       y="-0.21494099"
       height="1.429882">
      <feGaussianBlur
         stdDeviation="0.89858666"
         id="feGaussianBlur28504-3" />
    </filter>
    <filter
       style="color-interpolation-filters:sRGB"
       id="filter15145-6">
      <feGaussianBlur
         id="feGaussianBlur15147-1"
         stdDeviation="0.75821369" />
    </filter>
    <linearGradient
       id="linearGradient28275-8">
      <stop
         style="stop-color:#ad780a;stop-opacity:1"
         offset="0"
         id="stop28277-1" />
      <stop
         id="stop28291-9"
         offset="0.11972899"
         style="stop-color:#d89e08;stop-opacity:1" />
      <stop
         id="stop28289-6"
         offset="0.25514477"
         style="stop-color:#edb80b;stop-opacity:1" />
      <stop
         id="stop28287-6"
         offset="0.39194193"
         style="stop-color:#ebc80d;stop-opacity:1" />
      <stop
         id="stop28285-7"
         offset="0.52741116"
         style="stop-color:#f5d838;stop-opacity:1" />
      <stop
         id="stop28283-7"
         offset="0.76906693"
         style="stop-color:#f6d811;stop-opacity:1" />
      <stop
         style="stop-color:#f5cd31;stop-opacity:1"
         offset="1"
         id="stop28279-5" />
    </linearGradient>
    <filter
       style="color-interpolation-filters:sRGB"
       height="1.260552"
       y="-0.13027605"
       width="1.3219118"
       x="-0.16095592"
       id="filter14963-7">
      <feGaussianBlur
         id="feGaussianBlur14965-0"
         stdDeviation="0.84878819" />
    </filter>
    <linearGradient
       id="linearGradient29529-6">
      <stop
         style="stop-color:#3a2903;stop-opacity:1;"
         offset="0"
         id="stop29531-0" />
      <stop
         id="stop29539-7"
         offset="0.55472803"
         style="stop-color:#735208;stop-opacity:1" />
      <stop
         style="stop-color:#ac8c04;stop-opacity:1"
         offset="1"
         id="stop29533-8" />
    </linearGradient>
    <filter
       style="color-interpolation-filters:sRGB"
       id="filter15177-1">
      <feGaussianBlur
         id="feGaussianBlur15179-3"
         stdDeviation="0.11039302" />
    </filter>
    <filter
       style="color-interpolation-filters:sRGB"
       height="1.2114592"
       y="-0.10572958"
       width="1.2328929"
       x="-0.11644644"
       id="filter15173-0">
      <feGaussianBlur
         id="feGaussianBlur15175-4"
         stdDeviation="0.11039302" />
    </filter>
    <linearGradient
       id="linearGradient28572-7">
      <stop
         style="stop-color:#f5ce2d;stop-opacity:1;"
         offset="0"
         id="stop28574-5" />
      <stop
         style="stop-color:#d79b08;stop-opacity:1"
         offset="1"
         id="stop28576-0" />
    </linearGradient>
    <filter
       style="color-interpolation-filters:sRGB"
       id="filter28584-4"
       x="-0.10730159"
       width="1.2146032"
       y="-0.13610739"
       height="1.2722148">
      <feGaussianBlur
         stdDeviation="0.2640625"
         id="feGaussianBlur28586-3" />
    </filter>
    <linearGradient
       id="linearGradient29477-3">
      <stop
         style="stop-color:#757574;stop-opacity:0"
         offset="0"
         id="stop29479-5" />
      <stop
         id="stop29487-5"
         offset="0.26291031"
         style="stop-color:#757574;stop-opacity:1;" />
      <stop
         id="stop29485-0"
         offset="0.5"
         style="stop-color:#757574;stop-opacity:1;" />
      <stop
         style="stop-color:#757574;stop-opacity:0"
         offset="1"
         id="stop29481-3" />
    </linearGradient>
    <filter
       style="color-interpolation-filters:sRGB"
       id="filter29493-2"
       x="-0.23446631"
       width="1.4689326"
       y="-0.14606842"
       height="1.2921369">
      <feGaussianBlur
         stdDeviation="0.51262416"
         id="feGaussianBlur29495-7" />
    </filter>
    <linearGradient
       id="linearGradient29336-6">
      <stop
         style="stop-color:#646464;stop-opacity:0"
         offset="0"
         id="stop29338-1" />
      <stop
         id="stop29344-7"
         offset="0.30628255"
         style="stop-color:#646464;stop-opacity:0.5825243" />
      <stop
         style="stop-color:#646464;stop-opacity:1"
         offset="0.47000006"
         id="stop29354-5" />
      <stop
         id="stop29356-3"
         offset="0.72834015"
         style="stop-color:#646464;stop-opacity:0.25728154" />
      <stop
         style="stop-color:#646464;stop-opacity:0;"
         offset="1"
         id="stop29340-6" />
    </linearGradient>
    <filter
       style="color-interpolation-filters:sRGB"
       id="filter29447-1">
      <feGaussianBlur
         stdDeviation="0.13475369"
         id="feGaussianBlur29449-4" />
    </filter>
    <filter
       style="color-interpolation-filters:sRGB"
       id="filter29350-1">
      <feGaussianBlur
         stdDeviation="0.1475"
         id="feGaussianBlur29352-7" />
    </filter>
    <linearGradient
       id="linearGradient28976-3">
      <stop
         style="stop-color:#747474;stop-opacity:1"
         offset="0"
         id="stop28978-7" />
      <stop
         id="stop29259-5"
         offset="0.125"
         style="stop-color:#8c8c8c;stop-opacity:1;" />
      <stop
         id="stop29257-0"
         offset="0.25"
         style="stop-color:#a4a4a4;stop-opacity:1;" />
      <stop
         id="stop28984-4"
         offset="0.5"
         style="stop-color:#d4d4d4;stop-opacity:1" />
      <stop
         style="stop-color:#d4d4d4;stop-opacity:1"
         offset="0.61919296"
         id="stop28986-0" />
      <stop
         style="stop-color:#7c7c7c;stop-opacity:1"
         offset="1"
         id="stop28980-2" />
    </linearGradient>
    <clipPath
       clipPathUnits="userSpaceOnUse"
       id="clipPath29028-5">
      <path
         style="fill:url(#radialGradient29032);fill-opacity:1;stroke:none"
         d="m 85.75,122.36218 c -2.54738,2.12715 -5.20812,4.59907 -6.25,7.75 -1.30914,3.95917 -1.63336,8.91703 0.5,12.5 3.91901,6.58194 12.38353,13.85135 19.75,11.75 4.87452,-1.3905 6.10748,-8.51023 7,-13.5 0.59149,-3.30679 0.59578,-7.19325 -1.25,-10 -3.61233,-5.49303 -10.4265,-9.89357 -17,-10 -1.04403,-0.0169 -1.94852,0.83074 -2.75,1.5 z"
         id="path29030-7" />
    </clipPath>
    <filter
       style="color-interpolation-filters:sRGB"
       id="filter28927-8"
       x="-0.15795375"
       width="1.3159075"
       y="-0.2091987"
       height="1.4183974">
      <feGaussianBlur
         stdDeviation="0.24891089"
         id="feGaussianBlur28929-2" />
    </filter>
    <linearGradient
       id="linearGradient28935-8">
      <stop
         style="stop-color:#949494;stop-opacity:0.39215687;"
         offset="0"
         id="stop28937-7" />
      <stop
         id="stop28943-3"
         offset="0.5"
         style="stop-color:#949494;stop-opacity:1;" />
      <stop
         style="stop-color:#949494;stop-opacity:0.39215687;"
         offset="1"
         id="stop28939-8" />
    </linearGradient>
    <filter
       style="color-interpolation-filters:sRGB"
       id="filter28949-8"
       x="-0.17867894"
       width="1.3573579"
       y="-0.18134074"
       height="1.3626815">
      <feGaussianBlur
         stdDeviation="0.51947927"
         id="feGaussianBlur28951-1" />
    </filter>
    <filter
       style="color-interpolation-filters:sRGB"
       height="1.6165009"
       y="-0.30825046"
       width="1.5843594"
       x="-0.2921797"
       id="filter15133-1">
      <feGaussianBlur
         id="feGaussianBlur15135-5"
         stdDeviation="1.7403319" />
    </filter>
    <linearGradient
       id="linearGradient28853-5">
      <stop
         style="stop-color:#020204;stop-opacity:1"
         offset="0"
         id="stop28855-3" />
      <stop
         id="stop28865-0"
         offset="0.73448181"
         style="stop-color:#020204;stop-opacity:1" />
      <stop
         style="stop-color:#5c5c5c;stop-opacity:1;"
         offset="1"
         id="stop28857-9" />
    </linearGradient>
    <filter
       style="color-interpolation-filters:sRGB"
       id="filter4394-6"
       x="-0.054156531"
       width="1.1083131"
       y="-0.10737927"
       height="1.2147585">
      <feGaussianBlur
         stdDeviation="1.3605322"
         id="feGaussianBlur4396-1" />
    </filter>
    <filter
       style="color-interpolation-filters:sRGB"
       id="filter30475-4">
      <feGaussianBlur
         stdDeviation="0.93152507"
         id="feGaussianBlur30477-9" />
    </filter>
    <filter
       style="color-interpolation-filters:sRGB"
       id="filter30479-2"
       x="-0.07637769"
       width="1.1527554"
       y="-0.12919053"
       height="1.2583811">
      <feGaussianBlur
         stdDeviation="2.0355046"
         id="feGaussianBlur30481-9" />
    </filter>
    <radialGradient
       r="14.572236"
       fy="137.66095"
       fx="223.19559"
       cy="137.66095"
       cx="223.19559"
       gradientTransform="matrix(0.81524244,-0.03431182,0.02961133,1.2479887,-208.43744,-35.542647)"
       gradientUnits="userSpaceOnUse"
       id="radialGradient18806"
       xlink:href="#linearGradient28799-4" />
    <radialGradient
       r="14.572236"
       fy="137.66095"
       fx="223.19559"
       cy="137.66095"
       cx="223.19559"
       gradientTransform="matrix(1.0857794,-0.03431182,0.03943781,1.2479887,-233.54194,-35.542647)"
       gradientUnits="userSpaceOnUse"
       id="radialGradient18808"
       xlink:href="#linearGradient28799-4" />
    <radialGradient
       r="15.382211"
       fy="150.65126"
       fx="275.53763"
       cy="150.65126"
       cx="275.53763"
       gradientTransform="matrix(0.69784558,-0.50717348,0.46034105,0.63340638,-271.10191,183.03011)"
       gradientUnits="userSpaceOnUse"
       id="radialGradient18810"
       xlink:href="#linearGradient28853-5" />
    <linearGradient
       y2="140.72476"
       x2="219.73343"
       y1="132.76981"
       x1="213.01591"
       gradientTransform="translate(90)"
       gradientUnits="userSpaceOnUse"
       id="linearGradient18812"
       xlink:href="#linearGradient28935-8" />
    <linearGradient
       y2="132.48718"
       x2="358.625"
       y1="119.98718"
       x1="337.25"
       gradientTransform="translate(-250)"
       gradientUnits="userSpaceOnUse"
       id="linearGradient18814"
       xlink:href="#linearGradient28976-3" />
    <linearGradient
       y2="127.99684"
       x2="308.74051"
       y1="114.56181"
       x1="294.50998"
       gradientTransform="translate(-279,-9.0000017)"
       gradientUnits="userSpaceOnUse"
       id="linearGradient18816"
       xlink:href="#linearGradient29336-6" />
    <linearGradient
       y2="128.57106"
       x2="266.62701"
       y1="115.66637"
       x1="253.22745"
       gradientTransform="translate(-279,-9.0000017)"
       gradientUnits="userSpaceOnUse"
       id="linearGradient18818"
       xlink:href="#linearGradient29336-6" />
    <linearGradient
       y2="142.49252"
       x2="169.8824"
       y1="132.06271"
       x1="164.04878"
       gradientUnits="userSpaceOnUse"
       id="linearGradient18820"
       xlink:href="#linearGradient29477-3" />
    <radialGradient
       r="31.111488"
       fy="193.09949"
       fx="294.48483"
       cy="193.09949"
       cx="294.48483"
       gradientTransform="matrix(0.93618683,-0.38640412,0.27133164,0.65738721,-244.47527,146.7229)"
       gradientUnits="userSpaceOnUse"
       id="radialGradient18822"
       xlink:href="#linearGradient28469-0" />
    <linearGradient
       y2="157.8721"
       x2="313.3367"
       y1="158.31404"
       x1="256.85657"
       gradientTransform="translate(-210)"
       gradientUnits="userSpaceOnUse"
       id="linearGradient18824"
       xlink:href="#linearGradient28275-8" />
    <radialGradient
       r="3.2300935"
       fy="147.09335"
       fx="77.67215"
       cy="147.09335"
       cx="77.67215"
       gradientTransform="matrix(1.0000004,0,0,0.5833264,-3.4574816e-5,61.416192)"
       gradientUnits="userSpaceOnUse"
       id="radialGradient18826"
       xlink:href="#linearGradient29529-6" />
    <radialGradient
       r="1.5350333"
       fy="147.44128"
       fx="63.125401"
       cy="147.44128"
       cx="63.125401"
       gradientTransform="matrix(1,0,0,1.0751189,0,-11.094161)"
       gradientUnits="userSpaceOnUse"
       id="radialGradient18828"
       xlink:href="#linearGradient29529-6" />
    <linearGradient
       y2="159.76843"
       x2="243.46875"
       y1="157.01843"
       x1="243.03125"
       gradientUnits="userSpaceOnUse"
       id="linearGradient18830"
       xlink:href="#linearGradient28572-7" />
    <radialGradient
       r="35.51144"
       fy="126.53491"
       fx="268.06998"
       cy="126.53491"
       cx="268.06998"
       gradientTransform="matrix(0.20141143,-0.03316079,0.03065006,0.18616184,-3.1263574,114.03586)"
       gradientUnits="userSpaceOnUse"
       id="radialGradient18832"
       xlink:href="#linearGradient29652-2" />
    <radialGradient
       r="27.391165"
       fy="220.53755"
       fx="336.22372"
       cy="220.53755"
       cx="336.22372"
       gradientTransform="matrix(-0.69844216,0,0,0.76335815,166.3057,50.219935)"
       gradientUnits="userSpaceOnUse"
       id="radialGradient18834"
       xlink:href="#linearGradient4417-8-5" />
    <radialGradient
       r="27.391165"
       fy="236.36569"
       fx="312.14502"
       cy="236.36569"
       cx="312.14502"
       gradientTransform="matrix(1,0,0,0.76335815,-289,41.219938)"
       gradientUnits="userSpaceOnUse"
       id="radialGradient18836"
       xlink:href="#linearGradient4417-8-5" />
    <radialGradient
       r="10.84542"
       fy="225.13487"
       fx="275.55389"
       cy="225.13487"
       cx="275.55389"
       gradientTransform="matrix(1,0,0,1.0692348,-289,-23.860302)"
       gradientUnits="userSpaceOnUse"
       id="radialGradient18838"
       xlink:href="#linearGradient4417-8-5" />
    <linearGradient
       y2="351.48654"
       x2="341.98224"
       y1="323.90076"
       x1="338.28552"
       gradientTransform="translate(-310)"
       gradientUnits="userSpaceOnUse"
       id="linearGradient18840"
       xlink:href="#linearGradient15103-0" />
    <linearGradient
       y2="293.58548"
       x2="490.12241"
       y1="371.54401"
       x1="442.03912"
       gradientUnits="userSpaceOnUse"
       id="linearGradient18842"
       xlink:href="#linearGradient14392-7" />
    <linearGradient
       y2="302.31699"
       x2="353.74951"
       y1="289.58905"
       x1="355.16373"
       gradientTransform="translate(-310)"
       gradientUnits="userSpaceOnUse"
       id="linearGradient18844"
       xlink:href="#linearGradient17009" />
    <radialGradient
       r="16.845654"
       fy="303.41541"
       fx="363.33957"
       cy="303.41541"
       cx="363.33957"
       gradientTransform="matrix(1.3082075,0.35053296,-0.36795399,1.3732236,-310.50935,-240.34915)"
       gradientUnits="userSpaceOnUse"
       id="radialGradient18846"
       xlink:href="#linearGradient14518-6" />
    <radialGradient
       r="16.845654"
       fy="303.41541"
       fx="363.33957"
       cy="303.41541"
       cx="363.33957"
       gradientTransform="matrix(1.3082075,0.35053296,-0.36795399,1.3732236,-310.50935,-240.34915)"
       gradientUnits="userSpaceOnUse"
       id="radialGradient18848"
       xlink:href="#linearGradient14518-6" />
    <radialGradient
       r="20.537666"
       fy="246.85757"
       fx="382.23483"
       cy="246.85757"
       cx="382.23483"
       gradientTransform="matrix(0.36025223,0.15680447,-0.07246786,0.16649214,260.61683,181.93825)"
       gradientUnits="userSpaceOnUse"
       id="radialGradient18850"
       xlink:href="#linearGradient14830-4" />
    <linearGradient
       y2="279.23718"
       x2="361.5"
       y1="279.36218"
       x1="358.5"
       gradientUnits="userSpaceOnUse"
       id="linearGradient18852"
       xlink:href="#linearGradient14830-4" />
    <linearGradient
       y2="381.62027"
       x2="170.86368"
       y1="301.54044"
       x1="123.13397"
       gradientUnits="userSpaceOnUse"
       id="linearGradient18854"
       xlink:href="#linearGradient14132-6" />
    <linearGradient
       y2="352.27536"
       x2="186.5968"
       y1="323.99109"
       x1="171.57079"
       gradientTransform="translate(-0.53033009,-1.767767)"
       gradientUnits="userSpaceOnUse"
       id="linearGradient18856"
       xlink:href="#linearGradient14168-5" />
  </defs>
  <metadata
     id="metadata5">
    <rdf:RDF>
      <cc:Work
         rdf:about="">
        <dc:format>image/svg+xml</dc:format>
        <dc:type
           rdf:resource="http://purl.org/dc/dcmitype/StillImage" />
        <dc:title></dc:title>
      </cc:Work>
    </rdf:RDF>
  </metadata>
  <g
     id="layer1"
     transform="translate(-69.220027,-270.54166)">
    <g
       id="g851"
       transform="matrix(0.6375502,0,0,0.6375502,69.220027,270.54166)">
      <g
         transform="translate(-0.25,-9.25)"
         style="display:none"
         id="FPO_Dark" />
      <g
         transform="translate(-0.25,-9.25)"
         style="display:none"
         id="FPO_Light">
        <g
           style="display:inline"
           id="Mac_FPO">
          <g
             id="Menu_Component">
            <rect
               height="160"
               width="1000"
               style="fill:#f7f7f7"
               y="-62"
               x="-799"
               id="Background" />
          </g>
        </g>
      </g>
      <g
         transform="translate(-0.25,-9.25)"
         id="Spacing_Guide" />
      <g
         transform="translate(-0.25,-9.25)"
         style="display:none"
         id="Artboard_Guides" />
      <g
         transform="translate(-0.25,-9.25)"
         id="Dark" />
      <g
         transform="translate(-0.25,-9.25)"
         id="Light">
        <g
           id="Mac">
          <path
             d="m 23.091,23.018 v -0.342 l -1.063,0.073 c -0.301,0.019 -0.527,0.083 -0.679,0.191 -0.152,0.109 -0.228,0.26 -0.228,0.453 0,0.188 0.075,0.338 0.226,0.449 0.15,0.112 0.352,0.167 0.604,0.167 0.161,0 0.312,-0.025 0.451,-0.074 0.139,-0.049 0.261,-0.118 0.363,-0.206 0.102,-0.087 0.182,-0.191 0.239,-0.312 0.058,-0.121 0.087,-0.254 0.087,-0.399 z M 21,9.25 C 9.421,9.25 0.25,18.421 0.25,30 0.25,41.58 9.421,50.75 21,50.75 32.579,50.75 41.75,41.58 41.75,30 41.75,18.421 32.58,9.25 21,9.25 Z m 4.028,12.299 c 0.098,-0.275 0.236,-0.511 0.415,-0.707 0.179,-0.196 0.394,-0.347 0.646,-0.453 0.252,-0.106 0.533,-0.159 0.842,-0.159 0.279,0 0.531,0.042 0.755,0.125 0.225,0.083 0.417,0.195 0.578,0.336 0.161,0.141 0.289,0.305 0.383,0.493 0.094,0.188 0.15,0.387 0.169,0.596 H 27.983 C 27.962,21.665 27.924,21.557 27.87,21.458 27.816,21.359 27.745,21.273 27.657,21.2 c -0.089,-0.073 -0.193,-0.13 -0.312,-0.171 -0.12,-0.042 -0.254,-0.062 -0.405,-0.062 -0.177,0 -0.338,0.036 -0.481,0.107 -0.144,0.071 -0.267,0.172 -0.369,0.302 -0.102,0.13 -0.181,0.289 -0.237,0.475 -0.057,0.187 -0.085,0.394 -0.085,0.622 0,0.236 0.028,0.448 0.085,0.634 0.056,0.187 0.136,0.344 0.24,0.473 0.103,0.129 0.228,0.228 0.373,0.296 0.145,0.068 0.305,0.103 0.479,0.103 0.285,0 0.517,-0.067 0.697,-0.201 0.18,-0.134 0.296,-0.33 0.35,-0.588 h 0.834 c -0.024,0.228 -0.087,0.436 -0.189,0.624 -0.102,0.188 -0.234,0.348 -0.396,0.481 -0.163,0.133 -0.354,0.236 -0.574,0.308 -0.22,0.072 -0.462,0.109 -0.725,0.109 -0.312,0 -0.593,-0.052 -0.846,-0.155 -0.252,-0.103 -0.469,-0.252 -0.649,-0.445 -0.18,-0.193 -0.319,-0.428 -0.417,-0.705 -0.098,-0.277 -0.147,-0.588 -0.147,-0.935 -0.002,-0.339 0.047,-0.647 0.145,-0.923 z M 13.175,20.287 h 0.834 v 0.741 h 0.016 c 0.051,-0.123 0.118,-0.234 0.2,-0.33 0.082,-0.097 0.176,-0.179 0.284,-0.248 0.107,-0.069 0.226,-0.121 0.354,-0.157 0.129,-0.036 0.265,-0.054 0.407,-0.054 0.306,0 0.565,0.073 0.775,0.219 0.211,0.146 0.361,0.356 0.449,0.63 h 0.021 c 0.056,-0.132 0.13,-0.25 0.221,-0.354 0.091,-0.104 0.196,-0.194 0.314,-0.268 0.118,-0.074 0.248,-0.13 0.389,-0.169 0.141,-0.039 0.289,-0.058 0.445,-0.058 0.215,0 0.41,0.034 0.586,0.103 0.176,0.069 0.326,0.165 0.451,0.29 0.125,0.125 0.221,0.277 0.288,0.455 0.067,0.178 0.101,0.376 0.101,0.594 v 2.981 H 18.44 V 21.89 c 0,-0.287 -0.074,-0.51 -0.222,-0.667 -0.147,-0.157 -0.358,-0.236 -0.632,-0.236 -0.134,0 -0.257,0.024 -0.369,0.071 -0.111,0.047 -0.208,0.113 -0.288,0.198 -0.081,0.084 -0.144,0.186 -0.189,0.304 -0.046,0.118 -0.069,0.247 -0.069,0.387 v 2.715 h -0.858 v -2.844 c 0,-0.126 -0.02,-0.24 -0.059,-0.342 -0.039,-0.102 -0.094,-0.189 -0.167,-0.262 -0.072,-0.073 -0.161,-0.128 -0.264,-0.167 -0.104,-0.039 -0.22,-0.059 -0.349,-0.059 -0.134,0 -0.258,0.025 -0.373,0.075 -0.114,0.05 -0.212,0.119 -0.294,0.207 -0.082,0.089 -0.146,0.193 -0.191,0.314 C 14.072,21.704 14,21.836 14,21.978 v 2.683 h -0.825 z m 1.893,20.939 c -3.825,0 -6.224,-2.658 -6.224,-6.9 0,-4.242 2.399,-6.909 6.224,-6.909 3.825,0 6.215,2.667 6.215,6.909 0,4.241 -2.39,6.9 -6.215,6.9 z M 22.15,24.651 c -0.141,0.036 -0.285,0.054 -0.433,0.054 -0.218,0 -0.417,-0.031 -0.598,-0.093 -0.182,-0.062 -0.337,-0.149 -0.467,-0.262 -0.13,-0.113 -0.232,-0.249 -0.304,-0.409 -0.073,-0.16 -0.109,-0.338 -0.109,-0.534 0,-0.384 0.143,-0.684 0.429,-0.9 0.286,-0.216 0.7,-0.342 1.243,-0.377 l 1.18,-0.068 v -0.338 c 0,-0.252 -0.08,-0.445 -0.24,-0.576 -0.16,-0.131 -0.386,-0.197 -0.679,-0.197 -0.118,0 -0.229,0.015 -0.331,0.044 -0.102,0.03 -0.192,0.072 -0.27,0.127 -0.078,0.055 -0.143,0.121 -0.193,0.198 -0.051,0.076 -0.086,0.162 -0.105,0.256 h -0.818 c 0.005,-0.193 0.053,-0.372 0.143,-0.536 0.09,-0.164 0.212,-0.306 0.367,-0.427 0.155,-0.121 0.336,-0.215 0.546,-0.282 0.21,-0.067 0.438,-0.101 0.685,-0.101 0.266,0 0.507,0.033 0.723,0.101 0.216,0.068 0.401,0.163 0.554,0.288 0.153,0.125 0.271,0.275 0.354,0.451 0.083,0.176 0.125,0.373 0.125,0.59 v 3.001 h -0.833 v -0.729 h -0.021 c -0.062,0.118 -0.14,0.225 -0.235,0.32 -0.096,0.095 -0.203,0.177 -0.322,0.244 -0.12,0.067 -0.25,0.119 -0.391,0.155 z m 5.503,16.575 c -2.917,0 -4.9,-1.528 -5.038,-3.927 h 1.899 c 0.148,1.371 1.473,2.279 3.288,2.279 1.741,0 2.992,-0.908 2.992,-2.149 0,-1.074 -0.76,-1.723 -2.519,-2.167 l -1.714,-0.426 c -2.464,-0.611 -3.584,-1.732 -3.584,-3.575 0,-2.269 1.982,-3.844 4.807,-3.844 2.76,0 4.686,1.584 4.76,3.862 h -1.88 c -0.13,-1.371 -1.25,-2.214 -2.918,-2.214 -1.658,0 -2.806,0.852 -2.806,2.084 0,0.972 0.722,1.547 2.482,1.991 l 1.445,0.361 c 2.751,0.667 3.881,1.751 3.881,3.696 -10e-4,2.482 -1.964,4.029 -5.095,4.029 z M 15.068,29.12 c -2.621,0 -4.26,2.01 -4.26,5.205 0,3.186 1.639,5.196 4.26,5.196 2.612,0 4.26,-2.01 4.26,-5.196 0.001,-3.195 -1.648,-5.205 -4.26,-5.205 z"
             style="fill:#333333"
             id="macOS_Finder" />
        </g>
      </g>
      <g
         transform="translate(-0.25,-9.25)"
         id="WORKING_LAYER" />
      <g
         transform="translate(-0.25,-9.25)"
         id="LOCATION_NOTE" />
    </g>
  </g>
</svg>
