<?xml version="1.0" standalone="no"?>
<!DOCTYPE svg PUBLIC "-//W3C//DTD SVG 20010904//EN"
 "http://www.w3.org/TR/2001/REC-SVG-20010904/DTD/svg10.dtd">
<svg version="1.0" xmlns="http://www.w3.org/2000/svg"
 width="700.000000pt" height="700.000000pt" viewBox="0 0 700.000000 700.000000"
 preserveAspectRatio="xMidYMid meet">
<metadata>
Created by potrace 1.11, written by Peter Selinger 2001-2013
</metadata>
<g transform="translate(0.000000,700.000000) scale(0.100000,-0.100000)"
fill="#000000" stroke="none">
<path d="M0 5690 l0 -1310 268 0 c148 0 344 -3 435 -7 l167 -6 0 441 0 442
2630 0 2630 0 0 -441 0 -442 77 7 c42 3 237 6 435 6 l358 0 0 1310 0 1310
-3500 0 -3500 0 0 -1310z"/>
<path d="M1320 4155 l0 -215 1305 0 1305 0 0 215 0 215 -1305 0 -1305 0 0
-215z"/>
<path d="M1312 3283 l3 -218 1968 -3 1967 -2 0 220 0 220 -1970 0 -1970 0 2
-217z"/>
<path d="M1310 2405 l0 -215 1750 0 1750 0 0 215 0 215 -1750 0 -1750 0 0
-215z"/>
<path d="M1312 1533 l3 -218 1528 -3 1527 -2 0 220 0 220 -1530 0 -1530 0 2
-217z"/>
</g>
</svg>
