<?xml version="1.0" standalone="no"?>
<!DOCTYPE svg PUBLIC "-//W3C//DTD SVG 20010904//EN"
 "http://www.w3.org/TR/2001/REC-SVG-20010904/DTD/svg10.dtd">
<svg version="1.0" xmlns="http://www.w3.org/2000/svg"
 width="700.000000pt" height="700.000000pt" viewBox="0 0 700.000000 700.000000"
 preserveAspectRatio="xMidYMid meet">
<metadata>
Created by potrace 1.11, written by Peter Selinger 2001-2013
</metadata>
<g transform="translate(0.000000,700.000000) scale(0.100000,-0.100000)"
fill="#000000" stroke="none">
<path d="M0 5690 l0 -1310 215 -1 c118 0 1498 -1 3065 -1 1568 0 3046 1 3285
1 l435 1 0 1310 0 1310 -3500 0 -3500 0 0 -1310z"/>
<path d="M440 3720 l0 -220 1750 0 1750 0 -2 218 -3 217 -1747 3 -1748 2 0
-220z"/>
<path d="M440 2845 l0 -215 3060 0 3060 0 0 215 0 215 -3060 0 -3060 0 0 -215z"/>
<path d="M440 1970 l0 -220 3060 0 3060 0 0 220 0 220 -3060 0 -3060 0 0 -220z"/>
<path d="M440 1095 l0 -215 3060 0 3060 0 0 215 0 215 -3060 0 -3060 0 0 -215z"/>
</g>
</svg>
